<mxfile host="Electron" modified="2024-03-07T12:35:27.357Z" agent="Mozilla/5.0 (Windows NT 10.0; Win64; x64) AppleWebKit/537.36 (KHTML, like Gecko) draw.io/23.1.5 Chrome/120.0.6099.109 Electron/28.1.0 Safari/537.36" etag="xvOPU-s6mXo9rj3npqoy" version="23.1.5" type="device">
  <diagram id="10glaCfFHjlpt_X564yJ" name="Page-1">
    <mxGraphModel dx="2390" dy="2607" grid="1" gridSize="10" guides="1" tooltips="1" connect="1" arrows="1" fold="1" page="1" pageScale="1" pageWidth="1920" pageHeight="1200" math="0" shadow="0">
      <root>
        <mxCell id="0" />
        <mxCell id="1" parent="0" />
        <mxCell id="wJKNH2wa9GgD9NxRLnAG-59" value="" style="rounded=0;whiteSpace=wrap;html=1;fontSize=25;fillColor=#f5f5f5;fontColor=#333333;strokeColor=#666666;direction=east;strokeWidth=2;fontStyle=1" parent="1" vertex="1">
          <mxGeometry x="30" y="70" width="1760" height="1070" as="geometry" />
        </mxCell>
        <mxCell id="YqBSL-obBs7319_bEslr-108" value="" style="rounded=0;whiteSpace=wrap;html=1;fontSize=19;" parent="1" vertex="1">
          <mxGeometry x="50" y="696.5" width="1720" height="413.5" as="geometry" />
        </mxCell>
        <mxCell id="wJKNH2wa9GgD9NxRLnAG-54" value="" style="rounded=0;whiteSpace=wrap;html=1;fontSize=19;" parent="1" vertex="1">
          <mxGeometry x="50" y="400" width="1720" height="320" as="geometry" />
        </mxCell>
        <mxCell id="wJKNH2wa9GgD9NxRLnAG-53" value="" style="rounded=0;whiteSpace=wrap;html=1;fontSize=19;" parent="1" vertex="1">
          <mxGeometry x="50" y="120" width="1720" height="250" as="geometry" />
        </mxCell>
        <mxCell id="wJKNH2wa9GgD9NxRLnAG-9" style="edgeStyle=orthogonalEdgeStyle;rounded=0;orthogonalLoop=1;jettySize=auto;html=1;exitX=1;exitY=0.5;exitDx=0;exitDy=0;strokeColor=#00CC00;strokeWidth=2;fontStyle=1;entryX=0;entryY=0.5;entryDx=0;entryDy=0;" parent="1" source="wJKNH2wa9GgD9NxRLnAG-1" target="wJKNH2wa9GgD9NxRLnAG-2" edge="1">
          <mxGeometry relative="1" as="geometry" />
        </mxCell>
        <mxCell id="wJKNH2wa9GgD9NxRLnAG-1" value="VISIT DID PORTAL" style="rounded=0;whiteSpace=wrap;html=1;strokeWidth=2;fontStyle=1;" parent="1" vertex="1">
          <mxGeometry x="140" y="250" width="120" height="60" as="geometry" />
        </mxCell>
        <mxCell id="YqBSL-obBs7319_bEslr-122" style="edgeStyle=orthogonalEdgeStyle;rounded=0;orthogonalLoop=1;jettySize=auto;html=1;exitX=0.5;exitY=1;exitDx=0;exitDy=0;entryX=0.5;entryY=0;entryDx=0;entryDy=0;strokeColor=#00CC00;strokeWidth=2;fontStyle=1;" parent="1" source="wJKNH2wa9GgD9NxRLnAG-2" target="wJKNH2wa9GgD9NxRLnAG-8" edge="1">
          <mxGeometry relative="1" as="geometry" />
        </mxCell>
        <mxCell id="wJKNH2wa9GgD9NxRLnAG-2" value="CLICK NEW APPLICANT SIGN-UP" style="rounded=0;whiteSpace=wrap;html=1;strokeWidth=2;fontStyle=1;" parent="1" vertex="1">
          <mxGeometry x="300" y="146" width="120" height="60" as="geometry" />
        </mxCell>
        <mxCell id="wJKNH2wa9GgD9NxRLnAG-27" style="edgeStyle=orthogonalEdgeStyle;rounded=0;orthogonalLoop=1;jettySize=auto;html=1;exitX=0.5;exitY=0;exitDx=0;exitDy=0;entryX=0.5;entryY=1;entryDx=0;entryDy=0;strokeColor=#00CC00;strokeWidth=2;entryPerimeter=0;" parent="1" source="wJKNH2wa9GgD9NxRLnAG-3" target="wJKNH2wa9GgD9NxRLnAG-25" edge="1">
          <mxGeometry relative="1" as="geometry">
            <Array as="points" />
          </mxGeometry>
        </mxCell>
        <mxCell id="wJKNH2wa9GgD9NxRLnAG-3" value="GENERATE OTP - EMAIL AND PHONE&lt;br&gt;&lt;u&gt;B.2.4.1.A&lt;/u&gt;" style="rounded=0;whiteSpace=wrap;html=1;strokeWidth=2;fontStyle=1;" parent="1" vertex="1">
          <mxGeometry x="922" y="796" width="120" height="60" as="geometry" />
        </mxCell>
        <mxCell id="wJKNH2wa9GgD9NxRLnAG-26" value="RESET&lt;br&gt;COUNTER" style="edgeStyle=orthogonalEdgeStyle;rounded=0;orthogonalLoop=1;jettySize=auto;html=1;exitX=1;exitY=0.5;exitDx=0;exitDy=0;strokeColor=#00CC00;strokeWidth=2;entryX=0;entryY=0.5;entryDx=0;entryDy=0;fontStyle=1;labelBackgroundColor=none;" parent="1" source="wJKNH2wa9GgD9NxRLnAG-4" target="wJKNH2wa9GgD9NxRLnAG-3" edge="1">
          <mxGeometry relative="1" as="geometry" />
        </mxCell>
        <mxCell id="s-iZbaH3uCgn6FvZLSdB-7" style="edgeStyle=orthogonalEdgeStyle;rounded=0;orthogonalLoop=1;jettySize=auto;html=1;exitX=0.5;exitY=1;exitDx=0;exitDy=0;entryX=0.5;entryY=0;entryDx=0;entryDy=0;strokeColor=#FF0000;strokeWidth=2;" parent="1" source="wJKNH2wa9GgD9NxRLnAG-4" target="YqBSL-obBs7319_bEslr-95" edge="1">
          <mxGeometry relative="1" as="geometry" />
        </mxCell>
        <mxCell id="wJKNH2wa9GgD9NxRLnAG-4" value="IF CAPTCHA&lt;br&gt;TEST PASSED" style="rounded=0;whiteSpace=wrap;html=1;strokeWidth=2;fontStyle=1;shape=rhombus;perimeter=rhombusPerimeter;align=center;" parent="1" vertex="1">
          <mxGeometry x="730" y="785" width="120" height="80" as="geometry" />
        </mxCell>
        <mxCell id="wJKNH2wa9GgD9NxRLnAG-23" style="edgeStyle=orthogonalEdgeStyle;rounded=0;orthogonalLoop=1;jettySize=auto;html=1;exitX=0.5;exitY=1;exitDx=0;exitDy=0;strokeColor=#00CC00;strokeWidth=2;" parent="1" source="wJKNH2wa9GgD9NxRLnAG-5" target="wJKNH2wa9GgD9NxRLnAG-4" edge="1">
          <mxGeometry relative="1" as="geometry" />
        </mxCell>
        <mxCell id="wJKNH2wa9GgD9NxRLnAG-5" value="PERFORMS CAPTCHA TEST" style="rounded=0;whiteSpace=wrap;html=1;strokeWidth=2;fontStyle=1;" parent="1" vertex="1">
          <mxGeometry x="730" y="275" width="120" height="60" as="geometry" />
        </mxCell>
        <mxCell id="wJKNH2wa9GgD9NxRLnAG-22" style="edgeStyle=orthogonalEdgeStyle;rounded=0;orthogonalLoop=1;jettySize=auto;html=1;exitX=1;exitY=0.5;exitDx=0;exitDy=0;entryX=0.5;entryY=0;entryDx=0;entryDy=0;strokeColor=#00CC00;strokeWidth=2;" parent="1" source="wJKNH2wa9GgD9NxRLnAG-6" target="wJKNH2wa9GgD9NxRLnAG-5" edge="1">
          <mxGeometry relative="1" as="geometry" />
        </mxCell>
        <mxCell id="wJKNH2wa9GgD9NxRLnAG-6" value="ACCEPTS T&amp;amp;C FOR NEW ACCOUNT" style="rounded=0;whiteSpace=wrap;html=1;strokeWidth=2;fontStyle=1;" parent="1" vertex="1">
          <mxGeometry x="630" y="155" width="120" height="60" as="geometry" />
        </mxCell>
        <mxCell id="wJKNH2wa9GgD9NxRLnAG-21" style="edgeStyle=orthogonalEdgeStyle;rounded=0;orthogonalLoop=1;jettySize=auto;html=1;exitX=1;exitY=0.5;exitDx=0;exitDy=0;strokeColor=#00CC00;strokeWidth=2;" parent="1" source="wJKNH2wa9GgD9NxRLnAG-7" target="YqBSL-obBs7319_bEslr-129" edge="1">
          <mxGeometry relative="1" as="geometry" />
        </mxCell>
        <mxCell id="wJKNH2wa9GgD9NxRLnAG-7" value="CREATE STRONG PASSWORD (without FTP)&lt;br&gt;(B.1.4.1)" style="rounded=0;whiteSpace=wrap;html=1;strokeWidth=2;fontStyle=1;" parent="1" vertex="1">
          <mxGeometry x="470" y="160" width="120" height="60" as="geometry" />
        </mxCell>
        <mxCell id="YqBSL-obBs7319_bEslr-125" style="edgeStyle=orthogonalEdgeStyle;rounded=0;orthogonalLoop=1;jettySize=auto;html=1;exitX=0.5;exitY=1;exitDx=0;exitDy=0;strokeColor=#00CC00;strokeWidth=2;fontStyle=1;" parent="1" source="wJKNH2wa9GgD9NxRLnAG-8" target="YqBSL-obBs7319_bEslr-119" edge="1">
          <mxGeometry relative="1" as="geometry" />
        </mxCell>
        <mxCell id="wJKNH2wa9GgD9NxRLnAG-8" value="&lt;u&gt;FILLS PERSONAL DETAILS:&lt;/u&gt;&lt;br&gt;GIVEN NAME&lt;br&gt;FAMILY NAME&lt;br&gt;DOB&lt;br&gt;EMAIL&lt;br&gt;PHONE NUMBER" style="rounded=0;whiteSpace=wrap;html=1;strokeWidth=2;fontStyle=1;shape=parallelogram;perimeter=parallelogramPerimeter;fixedSize=1;" parent="1" vertex="1">
          <mxGeometry x="280" y="229" width="160" height="120" as="geometry" />
        </mxCell>
        <mxCell id="YqBSL-obBs7319_bEslr-127" style="edgeStyle=orthogonalEdgeStyle;rounded=0;orthogonalLoop=1;jettySize=auto;html=1;exitX=0.5;exitY=1;exitDx=0;exitDy=0;strokeColor=#FF0000;strokeWidth=2;fontStyle=1;" parent="1" source="wJKNH2wa9GgD9NxRLnAG-10" target="wJKNH2wa9GgD9NxRLnAG-17" edge="1">
          <mxGeometry relative="1" as="geometry" />
        </mxCell>
        <mxCell id="wJKNH2wa9GgD9NxRLnAG-10" value="IF EMAIL AND &lt;br&gt;PHONE NUMBER &lt;br&gt;NOT USED &lt;br&gt;PREVIOUSLY" style="rounded=0;whiteSpace=wrap;html=1;strokeWidth=2;fontStyle=1;shape=rhombus;perimeter=rhombusPerimeter;fillColor=#fff2cc;strokeColor=#d6b656;" parent="1" vertex="1">
          <mxGeometry x="285" y="781" width="150" height="110" as="geometry" />
        </mxCell>
        <mxCell id="wJKNH2wa9GgD9NxRLnAG-17" value="REDIRECT TO LOGIN PAGE&lt;br&gt;&lt;span style=&quot;font-weight: normal;&quot;&gt;(WITH REASON)&lt;/span&gt;" style="rounded=0;whiteSpace=wrap;html=1;strokeWidth=2;fontStyle=1;fillColor=#f8cecc;strokeColor=#b85450;shape=mxgraph.flowchart.terminator;" parent="1" vertex="1">
          <mxGeometry x="300" y="998" width="120" height="60" as="geometry" />
        </mxCell>
        <mxCell id="YqBSL-obBs7319_bEslr-139" style="edgeStyle=orthogonalEdgeStyle;rounded=0;orthogonalLoop=1;jettySize=auto;html=1;exitX=0.5;exitY=0;exitDx=0;exitDy=0;entryX=0;entryY=0.5;entryDx=0;entryDy=0;strokeColor=#00CC00;strokeWidth=2;" parent="1" source="wJKNH2wa9GgD9NxRLnAG-25" target="YqBSL-obBs7319_bEslr-138" edge="1">
          <mxGeometry relative="1" as="geometry">
            <Array as="points">
              <mxPoint x="982" y="185" />
            </Array>
          </mxGeometry>
        </mxCell>
        <mxCell id="wJKNH2wa9GgD9NxRLnAG-25" value="RECEIVES TWO DISTINCT OTP FROM EMAIL AND PHONE" style="rounded=0;whiteSpace=wrap;html=1;strokeWidth=2;fontStyle=1;" parent="1" vertex="1">
          <mxGeometry x="922" y="250" width="120" height="60" as="geometry" />
        </mxCell>
        <mxCell id="wJKNH2wa9GgD9NxRLnAG-34" style="edgeStyle=orthogonalEdgeStyle;rounded=0;orthogonalLoop=1;jettySize=auto;html=1;exitX=0.5;exitY=1;exitDx=0;exitDy=0;entryX=0.5;entryY=0;entryDx=0;entryDy=0;strokeColor=#00CC00;strokeWidth=2;" parent="1" source="wJKNH2wa9GgD9NxRLnAG-31" target="wJKNH2wa9GgD9NxRLnAG-33" edge="1">
          <mxGeometry relative="1" as="geometry" />
        </mxCell>
        <mxCell id="wJKNH2wa9GgD9NxRLnAG-31" value="OTP AUTHENTICATION (2FA)&lt;br&gt;&lt;u&gt;B.2.4.1.B&lt;/u&gt;" style="rounded=0;whiteSpace=wrap;html=1;strokeWidth=2;fontStyle=1;shape=label;fixedSize=1;" parent="1" vertex="1">
          <mxGeometry x="1072" y="250" width="120" height="60" as="geometry" />
        </mxCell>
        <mxCell id="YqBSL-obBs7319_bEslr-143" value="" style="edgeStyle=orthogonalEdgeStyle;rounded=0;orthogonalLoop=1;jettySize=auto;html=1;strokeColor=#00CC00;strokeWidth=2;" parent="1" source="wJKNH2wa9GgD9NxRLnAG-33" target="s-iZbaH3uCgn6FvZLSdB-19" edge="1">
          <mxGeometry relative="1" as="geometry" />
        </mxCell>
        <mxCell id="wJKNH2wa9GgD9NxRLnAG-33" value="IF &lt;br&gt;EMAIL &amp;amp; PHONE OTP AUTH. SUCCESS" style="rounded=0;whiteSpace=wrap;html=1;strokeWidth=2;fontStyle=1;shape=rhombus;perimeter=rhombusPerimeter;" parent="1" vertex="1">
          <mxGeometry x="1072" y="786" width="120" height="100" as="geometry" />
        </mxCell>
        <mxCell id="s-iZbaH3uCgn6FvZLSdB-24" style="edgeStyle=orthogonalEdgeStyle;rounded=0;orthogonalLoop=1;jettySize=auto;html=1;exitX=0.5;exitY=0;exitDx=0;exitDy=0;strokeColor=#00CC00;strokeWidth=2;" parent="1" source="wJKNH2wa9GgD9NxRLnAG-39" target="YqBSL-obBs7319_bEslr-150" edge="1">
          <mxGeometry relative="1" as="geometry">
            <mxPoint x="1693" y="785" as="targetPoint" />
            <Array as="points">
              <mxPoint x="1432" y="220" />
              <mxPoint x="1682" y="220" />
            </Array>
          </mxGeometry>
        </mxCell>
        <mxCell id="wJKNH2wa9GgD9NxRLnAG-39" value="RECEIVE SUCCESSFUL ACCOUNT CREATION NOTIFICATION&lt;br&gt;ON EMAIL &amp;amp; PHONE" style="rounded=0;whiteSpace=wrap;html=1;strokeWidth=2;fontStyle=1;" parent="1" vertex="1">
          <mxGeometry x="1362" y="246" width="140" height="84" as="geometry" />
        </mxCell>
        <mxCell id="wJKNH2wa9GgD9NxRLnAG-43" style="edgeStyle=orthogonalEdgeStyle;rounded=0;orthogonalLoop=1;jettySize=auto;html=1;exitX=0.5;exitY=0;exitDx=0;exitDy=0;entryX=0.5;entryY=1;entryDx=0;entryDy=0;strokeColor=#00CC00;strokeWidth=2;" parent="1" source="5ikOGDqvgjiypZmSYCvw-1" target="wJKNH2wa9GgD9NxRLnAG-39" edge="1">
          <mxGeometry relative="1" as="geometry">
            <mxPoint x="1463" y="872.5" as="targetPoint" />
          </mxGeometry>
        </mxCell>
        <mxCell id="wJKNH2wa9GgD9NxRLnAG-41" value="STORE USER INFORMATION&lt;br&gt;WITH ENCRYPTION AND HASHING" style="rounded=0;whiteSpace=wrap;html=1;strokeWidth=2;fontStyle=1;shape=label;boundedLbl=1;backgroundOutline=1;size=15;" parent="1" vertex="1">
          <mxGeometry x="1183" y="940" width="200" height="70" as="geometry" />
        </mxCell>
        <mxCell id="wJKNH2wa9GgD9NxRLnAG-45" value="APPLICANT" style="text;html=1;align=center;verticalAlign=middle;resizable=0;points=[];autosize=1;strokeColor=none;fillColor=none;fontSize=23;fontStyle=1;horizontal=0;strokeWidth=2;" parent="1" vertex="1">
          <mxGeometry x="50" y="150" width="50" height="150" as="geometry" />
        </mxCell>
        <mxCell id="wJKNH2wa9GgD9NxRLnAG-49" value="OB.1.1" style="text;html=1;align=center;verticalAlign=middle;resizable=0;points=[];autosize=1;strokeColor=none;fillColor=none;fontStyle=1;fontSize=30;" parent="1" vertex="1">
          <mxGeometry x="885" y="71" width="120" height="50" as="geometry" />
        </mxCell>
        <mxCell id="wJKNH2wa9GgD9NxRLnAG-50" value="REGISTER NEW ACCOUNT" style="text;html=1;align=center;verticalAlign=middle;resizable=0;points=[];autosize=1;strokeColor=none;fillColor=none;fontStyle=1;fontSize=28;" parent="1" vertex="1">
          <mxGeometry x="1379" y="71" width="390" height="50" as="geometry" />
        </mxCell>
        <mxCell id="wJKNH2wa9GgD9NxRLnAG-57" value="&lt;font style=&quot;font-size: 28px&quot;&gt;A&lt;/font&gt;" style="ellipse;whiteSpace=wrap;html=1;aspect=fixed;fontSize=12;fontStyle=1;rounded=0;strokeWidth=2;" parent="1" vertex="1">
          <mxGeometry x="47" y="76" width="40" height="40" as="geometry" />
        </mxCell>
        <mxCell id="s-iZbaH3uCgn6FvZLSdB-5" value="" style="edgeStyle=orthogonalEdgeStyle;rounded=0;orthogonalLoop=1;jettySize=auto;html=1;strokeColor=#00CC00;strokeWidth=2;" parent="1" source="s-iZbaH3uCgn6FvZLSdB-1" target="wJKNH2wa9GgD9NxRLnAG-1" edge="1">
          <mxGeometry relative="1" as="geometry" />
        </mxCell>
        <mxCell id="s-iZbaH3uCgn6FvZLSdB-1" value="&lt;b&gt;START&lt;br&gt;(ONLINE)&lt;br&gt;&lt;/b&gt;" style="strokeWidth=2;html=1;shape=mxgraph.flowchart.terminator;whiteSpace=wrap;fillColor=#d5e8d4;strokeColor=#82b366;" parent="1" vertex="1">
          <mxGeometry x="150" y="160" width="100" height="40" as="geometry" />
        </mxCell>
        <mxCell id="s-iZbaH3uCgn6FvZLSdB-8" style="edgeStyle=orthogonalEdgeStyle;rounded=0;orthogonalLoop=1;jettySize=auto;html=1;exitX=0;exitY=0.5;exitDx=0;exitDy=0;entryX=0;entryY=0.5;entryDx=0;entryDy=0;strokeColor=#00CC00;strokeWidth=2;" parent="1" source="s-iZbaH3uCgn6FvZLSdB-6" target="wJKNH2wa9GgD9NxRLnAG-5" edge="1">
          <mxGeometry relative="1" as="geometry">
            <Array as="points">
              <mxPoint x="710" y="986" />
              <mxPoint x="710" y="305" />
            </Array>
          </mxGeometry>
        </mxCell>
        <mxCell id="s-iZbaH3uCgn6FvZLSdB-10" style="edgeStyle=orthogonalEdgeStyle;rounded=0;orthogonalLoop=1;jettySize=auto;html=1;exitX=0.5;exitY=1;exitDx=0;exitDy=0;entryX=0;entryY=0.5;entryDx=0;entryDy=0;entryPerimeter=0;strokeColor=#FF0000;strokeWidth=2;" parent="1" source="s-iZbaH3uCgn6FvZLSdB-6" target="s-iZbaH3uCgn6FvZLSdB-9" edge="1">
          <mxGeometry relative="1" as="geometry">
            <Array as="points">
              <mxPoint x="790" y="1059" />
            </Array>
          </mxGeometry>
        </mxCell>
        <mxCell id="s-iZbaH3uCgn6FvZLSdB-6" value="IF &lt;br&gt;RETRY COUNT &amp;lt;=3" style="rhombus;whiteSpace=wrap;html=1;rounded=0;strokeWidth=2;fontStyle=1;" parent="1" vertex="1">
          <mxGeometry x="738" y="953" width="105" height="67" as="geometry" />
        </mxCell>
        <mxCell id="YqBSL-obBs7319_bEslr-154" style="edgeStyle=orthogonalEdgeStyle;rounded=0;orthogonalLoop=1;jettySize=auto;html=1;exitX=0.5;exitY=0;exitDx=0;exitDy=0;exitPerimeter=0;strokeColor=#00CC00;strokeWidth=2;" parent="1" source="s-iZbaH3uCgn6FvZLSdB-9" target="YqBSL-obBs7319_bEslr-153" edge="1">
          <mxGeometry relative="1" as="geometry">
            <Array as="points">
              <mxPoint x="1592" y="690" />
              <mxPoint x="1592" y="690" />
            </Array>
          </mxGeometry>
        </mxCell>
        <mxCell id="s-iZbaH3uCgn6FvZLSdB-9" value="&lt;b&gt;TERMINATE PROCESS: &lt;/b&gt;WITH ERROR MESSAGE" style="strokeWidth=2;html=1;shape=mxgraph.flowchart.terminator;whiteSpace=wrap;fillColor=#f8cecc;strokeColor=#b85450;" parent="1" vertex="1">
          <mxGeometry x="1517" y="1039.5" width="150" height="40" as="geometry" />
        </mxCell>
        <mxCell id="YqBSL-obBs7319_bEslr-144" style="edgeStyle=orthogonalEdgeStyle;rounded=0;orthogonalLoop=1;jettySize=auto;html=1;exitX=0.5;exitY=1;exitDx=0;exitDy=0;strokeColor=#00CC00;strokeWidth=2;" parent="1" source="s-iZbaH3uCgn6FvZLSdB-19" target="wJKNH2wa9GgD9NxRLnAG-41" edge="1">
          <mxGeometry relative="1" as="geometry" />
        </mxCell>
        <mxCell id="s-iZbaH3uCgn6FvZLSdB-19" value="CREATE NEW USER ACCOUNT" style="rounded=0;whiteSpace=wrap;html=1;strokeWidth=2;fontStyle=1;" parent="1" vertex="1">
          <mxGeometry x="1223" y="805" width="120" height="60" as="geometry" />
        </mxCell>
        <mxCell id="YqBSL-obBs7319_bEslr-13" value="&lt;font style=&quot;font-size: 14px;&quot;&gt;LEGEND&lt;/font&gt;" style="swimlane;whiteSpace=wrap;html=1;" parent="1" vertex="1">
          <mxGeometry x="1790" y="120" width="200" height="270" as="geometry" />
        </mxCell>
        <mxCell id="YqBSL-obBs7319_bEslr-14" value="KM" style="ellipse;whiteSpace=wrap;html=1;fillColor=#dae8fc;strokeColor=#6c8ebf;gradientColor=#7ea6e0;fontStyle=1" parent="YqBSL-obBs7319_bEslr-13" vertex="1">
          <mxGeometry x="10" y="30" width="30" height="26" as="geometry" />
        </mxCell>
        <mxCell id="YqBSL-obBs7319_bEslr-15" value="IDA" style="ellipse;whiteSpace=wrap;html=1;fillColor=#dae8fc;strokeColor=#6c8ebf;gradientColor=#7ea6e0;fontStyle=1" parent="YqBSL-obBs7319_bEslr-13" vertex="1">
          <mxGeometry x="10" y="131" width="30" height="26" as="geometry" />
        </mxCell>
        <mxCell id="YqBSL-obBs7319_bEslr-16" value="HSM" style="ellipse;whiteSpace=wrap;html=1;fillColor=#dae8fc;strokeColor=#6c8ebf;gradientColor=#7ea6e0;fontStyle=1" parent="YqBSL-obBs7319_bEslr-13" vertex="1">
          <mxGeometry x="10" y="91" width="30" height="26" as="geometry" />
        </mxCell>
        <mxCell id="YqBSL-obBs7319_bEslr-17" value="KR" style="ellipse;whiteSpace=wrap;html=1;fillColor=#dae8fc;strokeColor=#6c8ebf;gradientColor=#7ea6e0;fontStyle=1" parent="YqBSL-obBs7319_bEslr-13" vertex="1">
          <mxGeometry x="10" y="59" width="30" height="26" as="geometry" />
        </mxCell>
        <mxCell id="YqBSL-obBs7319_bEslr-18" value="Key Manager" style="text;html=1;strokeColor=none;fillColor=none;align=center;verticalAlign=middle;whiteSpace=wrap;rounded=0;fontSize=14;" parent="YqBSL-obBs7319_bEslr-13" vertex="1">
          <mxGeometry x="40" y="30" width="160" height="28" as="geometry" />
        </mxCell>
        <mxCell id="YqBSL-obBs7319_bEslr-19" value="Key Revocation" style="text;html=1;strokeColor=none;fillColor=none;align=center;verticalAlign=middle;whiteSpace=wrap;rounded=0;fontSize=14;" parent="YqBSL-obBs7319_bEslr-13" vertex="1">
          <mxGeometry x="40" y="58" width="160" height="28" as="geometry" />
        </mxCell>
        <mxCell id="YqBSL-obBs7319_bEslr-20" value="Hardware Security Module" style="text;html=1;strokeColor=none;fillColor=none;align=center;verticalAlign=middle;whiteSpace=wrap;rounded=0;fontSize=14;" parent="YqBSL-obBs7319_bEslr-13" vertex="1">
          <mxGeometry x="40" y="90" width="160" height="28" as="geometry" />
        </mxCell>
        <mxCell id="YqBSL-obBs7319_bEslr-21" value="ID Authentication (DB)" style="text;html=1;strokeColor=none;fillColor=none;align=center;verticalAlign=middle;whiteSpace=wrap;rounded=0;fontSize=14;" parent="YqBSL-obBs7319_bEslr-13" vertex="1">
          <mxGeometry x="40" y="130" width="160" height="28" as="geometry" />
        </mxCell>
        <mxCell id="YqBSL-obBs7319_bEslr-22" value="AC" style="ellipse;whiteSpace=wrap;html=1;fillColor=#dae8fc;strokeColor=#6c8ebf;gradientColor=#7ea6e0;fontStyle=1" parent="YqBSL-obBs7319_bEslr-13" vertex="1">
          <mxGeometry x="10" y="161" width="30" height="26" as="geometry" />
        </mxCell>
        <mxCell id="YqBSL-obBs7319_bEslr-23" value="Access Control" style="text;html=1;strokeColor=none;fillColor=none;align=center;verticalAlign=middle;whiteSpace=wrap;rounded=0;fontSize=14;" parent="YqBSL-obBs7319_bEslr-13" vertex="1">
          <mxGeometry x="40" y="160" width="160" height="28" as="geometry" />
        </mxCell>
        <mxCell id="YqBSL-obBs7319_bEslr-24" value="Certificate Authority" style="text;html=1;strokeColor=none;fillColor=none;align=center;verticalAlign=middle;whiteSpace=wrap;rounded=0;fontSize=14;" parent="YqBSL-obBs7319_bEslr-13" vertex="1">
          <mxGeometry x="40" y="190" width="160" height="28" as="geometry" />
        </mxCell>
        <mxCell id="YqBSL-obBs7319_bEslr-25" value="CA" style="ellipse;whiteSpace=wrap;html=1;fillColor=#dae8fc;strokeColor=#6c8ebf;gradientColor=#7ea6e0;fontStyle=1" parent="YqBSL-obBs7319_bEslr-13" vertex="1">
          <mxGeometry x="10" y="191" width="30" height="26" as="geometry" />
        </mxCell>
        <mxCell id="YqBSL-obBs7319_bEslr-117" value="First Time Password" style="text;html=1;align=center;verticalAlign=middle;resizable=0;points=[];autosize=1;strokeColor=none;fillColor=none;fontSize=14;rounded=0;" parent="YqBSL-obBs7319_bEslr-13" vertex="1">
          <mxGeometry x="55" y="228" width="130" height="30" as="geometry" />
        </mxCell>
        <mxCell id="YqBSL-obBs7319_bEslr-118" value="FTP" style="text;html=1;align=center;verticalAlign=middle;resizable=0;points=[];autosize=1;strokeColor=none;fillColor=none;fontStyle=1" parent="YqBSL-obBs7319_bEslr-13" vertex="1">
          <mxGeometry y="228" width="50" height="30" as="geometry" />
        </mxCell>
        <mxCell id="YqBSL-obBs7319_bEslr-29" value="PUBLIC NETWORK&lt;br style=&quot;border-color: var(--border-color);&quot;&gt;SYSTEMS (CLIENT)" style="text;html=1;align=center;verticalAlign=middle;resizable=0;points=[];autosize=1;strokeColor=none;fillColor=none;fontStyle=1;fontSize=23;strokeWidth=2;horizontal=0;" parent="1" vertex="1">
          <mxGeometry x="50" y="455" width="80" height="230" as="geometry" />
        </mxCell>
        <mxCell id="YqBSL-obBs7319_bEslr-76" value="&lt;font style=&quot;font-size: 14px;&quot;&gt;PUBLIC NETWORK&lt;/font&gt;" style="swimlane;whiteSpace=wrap;html=1;" parent="1" vertex="1">
          <mxGeometry x="1790" y="423" width="200" height="167" as="geometry" />
        </mxCell>
        <mxCell id="YqBSL-obBs7319_bEslr-77" value="DNS SERVERS" style="text;html=1;strokeColor=none;fillColor=none;align=center;verticalAlign=middle;whiteSpace=wrap;rounded=0;fontSize=14;" parent="YqBSL-obBs7319_bEslr-76" vertex="1">
          <mxGeometry y="27" width="200" height="28" as="geometry" />
        </mxCell>
        <mxCell id="YqBSL-obBs7319_bEslr-78" value="FTP SERVERS" style="text;html=1;strokeColor=none;fillColor=none;align=center;verticalAlign=middle;whiteSpace=wrap;rounded=0;fontSize=14;" parent="YqBSL-obBs7319_bEslr-76" vertex="1">
          <mxGeometry y="55" width="200" height="28" as="geometry" />
        </mxCell>
        <mxCell id="YqBSL-obBs7319_bEslr-79" value="MAIL SERVERS" style="text;html=1;strokeColor=none;fillColor=none;align=center;verticalAlign=middle;whiteSpace=wrap;rounded=0;fontSize=14;" parent="YqBSL-obBs7319_bEslr-76" vertex="1">
          <mxGeometry y="83" width="200" height="28" as="geometry" />
        </mxCell>
        <mxCell id="YqBSL-obBs7319_bEslr-80" value="PROXY SERVERS" style="text;html=1;strokeColor=none;fillColor=none;align=center;verticalAlign=middle;whiteSpace=wrap;rounded=0;fontSize=14;" parent="YqBSL-obBs7319_bEslr-76" vertex="1">
          <mxGeometry y="111" width="200" height="28" as="geometry" />
        </mxCell>
        <mxCell id="YqBSL-obBs7319_bEslr-81" value="WEB SERVERS" style="text;html=1;strokeColor=none;fillColor=none;align=center;verticalAlign=middle;whiteSpace=wrap;rounded=0;fontSize=14;" parent="YqBSL-obBs7319_bEslr-76" vertex="1">
          <mxGeometry y="139" width="200" height="28" as="geometry" />
        </mxCell>
        <mxCell id="YqBSL-obBs7319_bEslr-28" value="PRIVATE NETWORK&lt;br style=&quot;border-color: var(--border-color);&quot;&gt;SYSTEMS (SERVER)" style="text;html=1;align=center;verticalAlign=middle;resizable=0;points=[];autosize=1;strokeColor=none;fillColor=none;fontStyle=1;fontSize=23;strokeWidth=2;horizontal=0;" parent="1" vertex="1">
          <mxGeometry x="50" y="802.5" width="80" height="240" as="geometry" />
        </mxCell>
        <mxCell id="YqBSL-obBs7319_bEslr-115" value="USER" style="shape=umlActor;verticalLabelPosition=bottom;verticalAlign=top;html=1;outlineConnect=0;fontStyle=1" parent="1" vertex="1">
          <mxGeometry x="90" y="180" width="30" height="60" as="geometry" />
        </mxCell>
        <mxCell id="YqBSL-obBs7319_bEslr-126" style="edgeStyle=orthogonalEdgeStyle;rounded=0;orthogonalLoop=1;jettySize=auto;html=1;exitX=0.5;exitY=1;exitDx=0;exitDy=0;strokeColor=#00CC00;strokeWidth=2;fontStyle=1;" parent="1" source="YqBSL-obBs7319_bEslr-119" edge="1">
          <mxGeometry relative="1" as="geometry">
            <mxPoint x="360" y="600" as="targetPoint" />
          </mxGeometry>
        </mxCell>
        <mxCell id="YqBSL-obBs7319_bEslr-119" value="IF&lt;br&gt;&amp;nbsp;AGE&lt;br&gt;&amp;gt;16 YEARS &lt;br&gt;OLD" style="rounded=0;whiteSpace=wrap;html=1;strokeWidth=2;fontStyle=1;shape=rhombus;perimeter=rhombusPerimeter;align=center;" parent="1" vertex="1">
          <mxGeometry x="300" y="460" width="120" height="80" as="geometry" />
        </mxCell>
        <mxCell id="YqBSL-obBs7319_bEslr-121" style="edgeStyle=orthogonalEdgeStyle;rounded=0;orthogonalLoop=1;jettySize=auto;html=1;exitX=1;exitY=0.5;exitDx=0;exitDy=0;entryX=0;entryY=0.5;entryDx=0;entryDy=0;entryPerimeter=0;strokeColor=#FF0000;strokeWidth=2;" parent="1" source="YqBSL-obBs7319_bEslr-119" target="s-iZbaH3uCgn6FvZLSdB-9" edge="1">
          <mxGeometry relative="1" as="geometry">
            <Array as="points">
              <mxPoint x="470" y="500" />
              <mxPoint x="470" y="1060" />
            </Array>
          </mxGeometry>
        </mxCell>
        <mxCell id="YqBSL-obBs7319_bEslr-128" style="edgeStyle=orthogonalEdgeStyle;rounded=0;orthogonalLoop=1;jettySize=auto;html=1;exitX=1;exitY=0.5;exitDx=0;exitDy=0;entryX=0.5;entryY=1;entryDx=0;entryDy=0;strokeColor=#00CC00;strokeWidth=2;jumpStyle=arc;jumpSize=12;" parent="1" source="wJKNH2wa9GgD9NxRLnAG-10" target="wJKNH2wa9GgD9NxRLnAG-7" edge="1">
          <mxGeometry relative="1" as="geometry" />
        </mxCell>
        <mxCell id="YqBSL-obBs7319_bEslr-136" style="edgeStyle=orthogonalEdgeStyle;rounded=0;orthogonalLoop=1;jettySize=auto;html=1;exitX=1;exitY=0.5;exitDx=0;exitDy=0;entryX=0.5;entryY=1;entryDx=0;entryDy=0;strokeColor=#00CC00;strokeWidth=2;" parent="1" source="YqBSL-obBs7319_bEslr-129" target="wJKNH2wa9GgD9NxRLnAG-6" edge="1">
          <mxGeometry relative="1" as="geometry" />
        </mxCell>
        <mxCell id="YqBSL-obBs7319_bEslr-129" value="IF &lt;br&gt;CREATE PASS. SUCCESS" style="rounded=0;whiteSpace=wrap;html=1;strokeWidth=2;fontStyle=1;shape=rhombus;perimeter=rhombusPerimeter;align=center;" parent="1" vertex="1">
          <mxGeometry x="550" y="850" width="120" height="80" as="geometry" />
        </mxCell>
        <mxCell id="cPn6Yr00BYmyyXOY9e0H-1" style="edgeStyle=orthogonalEdgeStyle;rounded=0;orthogonalLoop=1;jettySize=auto;html=1;exitX=0.5;exitY=1;exitDx=0;exitDy=0;entryX=0.5;entryY=0;entryDx=0;entryDy=0;strokeColor=#FF0000;strokeWidth=2;" parent="1" source="YqBSL-obBs7319_bEslr-95" target="s-iZbaH3uCgn6FvZLSdB-6" edge="1">
          <mxGeometry relative="1" as="geometry" />
        </mxCell>
        <mxCell id="YqBSL-obBs7319_bEslr-95" value="EXCEPTION AND ERROR HANDLING (COUNTER)" style="rounded=0;whiteSpace=wrap;html=1;fontStyle=1;strokeWidth=2;fontSize=11;shape=label;boundedLbl=1;backgroundOutline=1;size=9.769240159254764;" parent="1" vertex="1">
          <mxGeometry x="720" y="898" width="140" height="30.5" as="geometry" />
        </mxCell>
        <mxCell id="YqBSL-obBs7319_bEslr-134" style="edgeStyle=orthogonalEdgeStyle;rounded=0;orthogonalLoop=1;jettySize=auto;html=1;exitX=0.5;exitY=1;exitDx=0;exitDy=0;entryX=0;entryY=0.5;entryDx=0;entryDy=0;entryPerimeter=0;strokeColor=#FF0000;strokeWidth=2;" parent="1" source="YqBSL-obBs7319_bEslr-129" target="s-iZbaH3uCgn6FvZLSdB-9" edge="1">
          <mxGeometry relative="1" as="geometry" />
        </mxCell>
        <mxCell id="YqBSL-obBs7319_bEslr-137" value="AC" style="ellipse;whiteSpace=wrap;html=1;fillColor=#dae8fc;strokeColor=#6c8ebf;gradientColor=#7ea6e0;fontStyle=1" parent="1" vertex="1">
          <mxGeometry x="560" y="846" width="30" height="26" as="geometry" />
        </mxCell>
        <mxCell id="YqBSL-obBs7319_bEslr-140" style="edgeStyle=orthogonalEdgeStyle;rounded=0;orthogonalLoop=1;jettySize=auto;html=1;exitX=0.5;exitY=1;exitDx=0;exitDy=0;entryX=0.5;entryY=0;entryDx=0;entryDy=0;strokeColor=#00CC00;strokeWidth=2;" parent="1" source="YqBSL-obBs7319_bEslr-138" target="wJKNH2wa9GgD9NxRLnAG-31" edge="1">
          <mxGeometry relative="1" as="geometry" />
        </mxCell>
        <mxCell id="YqBSL-obBs7319_bEslr-138" value="ENTER EMAIL AND PHONE OTP" style="rounded=0;whiteSpace=wrap;html=1;strokeWidth=2;fontStyle=1;shape=parallelogram;perimeter=parallelogramPerimeter;fixedSize=1;" parent="1" vertex="1">
          <mxGeometry x="1062" y="155" width="140" height="60" as="geometry" />
        </mxCell>
        <mxCell id="YqBSL-obBs7319_bEslr-141" value="AC" style="ellipse;whiteSpace=wrap;html=1;fillColor=#dae8fc;strokeColor=#6c8ebf;gradientColor=#7ea6e0;fontStyle=1" parent="1" vertex="1">
          <mxGeometry x="1079" y="787" width="30" height="26" as="geometry" />
        </mxCell>
        <mxCell id="YqBSL-obBs7319_bEslr-142" style="edgeStyle=orthogonalEdgeStyle;rounded=0;orthogonalLoop=1;jettySize=auto;html=1;exitX=0.5;exitY=1;exitDx=0;exitDy=0;entryX=0;entryY=0.5;entryDx=0;entryDy=0;entryPerimeter=0;strokeColor=#FF0000;strokeWidth=2;" parent="1" source="wJKNH2wa9GgD9NxRLnAG-33" target="s-iZbaH3uCgn6FvZLSdB-9" edge="1">
          <mxGeometry relative="1" as="geometry" />
        </mxCell>
        <mxCell id="YqBSL-obBs7319_bEslr-145" value="IDA" style="ellipse;whiteSpace=wrap;html=1;fillColor=#dae8fc;strokeColor=#6c8ebf;gradientColor=#7ea6e0;fontStyle=1" parent="1" vertex="1">
          <mxGeometry x="1183" y="914" width="30" height="26" as="geometry" />
        </mxCell>
        <mxCell id="YqBSL-obBs7319_bEslr-146" value="KM" style="ellipse;whiteSpace=wrap;html=1;fillColor=#dae8fc;strokeColor=#6c8ebf;gradientColor=#7ea6e0;fontStyle=1" parent="1" vertex="1">
          <mxGeometry x="1153" y="940" width="30" height="26" as="geometry" />
        </mxCell>
        <mxCell id="YqBSL-obBs7319_bEslr-147" value="HSM" style="ellipse;whiteSpace=wrap;html=1;fillColor=#dae8fc;strokeColor=#6c8ebf;gradientColor=#7ea6e0;fontStyle=1" parent="1" vertex="1">
          <mxGeometry x="1153" y="984" width="30" height="26" as="geometry" />
        </mxCell>
        <mxCell id="YqBSL-obBs7319_bEslr-148" value="NOTIFICATION GENERATOR" style="rounded=0;whiteSpace=wrap;html=1;fontStyle=1;strokeWidth=2;fontSize=11;fillColor=default;strokeColor=default;" parent="1" vertex="1">
          <mxGeometry x="1373" y="762.5" width="249" height="27.5" as="geometry" />
        </mxCell>
        <mxCell id="YqBSL-obBs7319_bEslr-149" value="" style="edgeStyle=orthogonalEdgeStyle;rounded=0;orthogonalLoop=1;jettySize=auto;html=1;strokeColor=#00CC00;fontStyle=1;strokeWidth=2;" parent="1" source="YqBSL-obBs7319_bEslr-150" target="YqBSL-obBs7319_bEslr-151" edge="1">
          <mxGeometry relative="1" as="geometry" />
        </mxCell>
        <mxCell id="YqBSL-obBs7319_bEslr-150" value="LOGS THE PROCESS AND STATUS" style="rounded=0;whiteSpace=wrap;html=1;fontStyle=1;strokeWidth=2;shape=label;boundedLbl=1;backgroundOutline=1;size=15;" parent="1" vertex="1">
          <mxGeometry x="1622" y="890" width="120" height="60.5" as="geometry" />
        </mxCell>
        <mxCell id="YqBSL-obBs7319_bEslr-151" value="&lt;b&gt;END&lt;/b&gt;" style="strokeWidth=2;html=1;shape=mxgraph.flowchart.terminator;whiteSpace=wrap;fillColor=#f8cecc;strokeColor=#b85450;" parent="1" vertex="1">
          <mxGeometry x="1632" y="979.5" width="100" height="40" as="geometry" />
        </mxCell>
        <mxCell id="YqBSL-obBs7319_bEslr-152" value="IDA" style="ellipse;whiteSpace=wrap;html=1;fillColor=#dae8fc;strokeColor=#6c8ebf;gradientColor=#7ea6e0;fontStyle=1" parent="1" vertex="1">
          <mxGeometry x="1622" y="863" width="30" height="26" as="geometry" />
        </mxCell>
        <mxCell id="YqBSL-obBs7319_bEslr-157" style="edgeStyle=orthogonalEdgeStyle;rounded=0;orthogonalLoop=1;jettySize=auto;html=1;exitX=1;exitY=0.5;exitDx=0;exitDy=0;fontSize=11;fillColor=default;strokeWidth=2;fontStyle=1;strokeColor=#00CC00;" parent="1" source="YqBSL-obBs7319_bEslr-153" target="YqBSL-obBs7319_bEslr-150" edge="1">
          <mxGeometry relative="1" as="geometry" />
        </mxCell>
        <mxCell id="YqBSL-obBs7319_bEslr-153" value="RECEIVE ACCOUNT CREATION FAILURE NOTIFICATION WITH REASON ON EMAIL AND PHONE" style="rounded=0;whiteSpace=wrap;html=1;strokeWidth=2;fontStyle=1;" parent="1" vertex="1">
          <mxGeometry x="1522" y="246" width="140" height="84" as="geometry" />
        </mxCell>
        <mxCell id="YqBSL-obBs7319_bEslr-155" style="edgeStyle=orthogonalEdgeStyle;rounded=0;orthogonalLoop=1;jettySize=auto;html=1;exitX=0.5;exitY=1;exitDx=0;exitDy=0;strokeColor=#00CC00;strokeWidth=2;" parent="1" source="YqBSL-obBs7319_bEslr-44" target="wJKNH2wa9GgD9NxRLnAG-10" edge="1">
          <mxGeometry relative="1" as="geometry" />
        </mxCell>
        <mxCell id="YqBSL-obBs7319_bEslr-44" value="MASK &amp;amp; ENCRYPT USER DETAILS" style="rounded=0;whiteSpace=wrap;html=1;fontStyle=1;strokeWidth=2;fontSize=11;" parent="1" vertex="1">
          <mxGeometry x="300" y="599" width="120" height="60" as="geometry" />
        </mxCell>
        <mxCell id="YqBSL-obBs7319_bEslr-85" value="CA" style="ellipse;whiteSpace=wrap;html=1;fillColor=#dae8fc;strokeColor=#6c8ebf;gradientColor=#7ea6e0;fontStyle=1" parent="1" vertex="1">
          <mxGeometry x="270" y="642" width="30" height="26" as="geometry" />
        </mxCell>
        <mxCell id="YqBSL-obBs7319_bEslr-86" value="HSM" style="ellipse;whiteSpace=wrap;html=1;fillColor=#dae8fc;strokeColor=#6c8ebf;gradientColor=#7ea6e0;fontStyle=1" parent="1" vertex="1">
          <mxGeometry x="270" y="616" width="30" height="26" as="geometry" />
        </mxCell>
        <mxCell id="YqBSL-obBs7319_bEslr-87" value="KM" style="ellipse;whiteSpace=wrap;html=1;fillColor=#dae8fc;strokeColor=#6c8ebf;gradientColor=#7ea6e0;fontStyle=1" parent="1" vertex="1">
          <mxGeometry x="270" y="590" width="30" height="26" as="geometry" />
        </mxCell>
        <mxCell id="YqBSL-obBs7319_bEslr-131" value="" style="group" parent="1" vertex="1" connectable="0">
          <mxGeometry x="50" y="685" width="1720" height="60" as="geometry" />
        </mxCell>
        <mxCell id="YqBSL-obBs7319_bEslr-112" value="" style="group" parent="YqBSL-obBs7319_bEslr-131" vertex="1" connectable="0">
          <mxGeometry y="20" width="1720" height="40" as="geometry" />
        </mxCell>
        <mxCell id="YqBSL-obBs7319_bEslr-113" value="IDS, IPS, HONEYPOT" style="shape=label;whiteSpace=wrap;html=1;boundedLbl=1;backgroundOutline=1;darkOpacity=0.05;darkOpacity2=0.1;fillColor=#f0a30a;strokeColor=#BD7000;rounded=0;fontColor=#000000;fontSize=12;fontStyle=1" parent="YqBSL-obBs7319_bEslr-112" vertex="1">
          <mxGeometry y="20" width="1719.9999999999998" height="20" as="geometry" />
        </mxCell>
        <mxCell id="YqBSL-obBs7319_bEslr-114" value="SINGLE/ DUAL FIREWALL" style="shape=label;whiteSpace=wrap;html=1;boundedLbl=1;backgroundOutline=1;darkOpacity=0.05;darkOpacity2=0.1;fillColor=#e51400;fontColor=#ffffff;strokeColor=#B20000;rounded=0;fontStyle=1" parent="YqBSL-obBs7319_bEslr-112" vertex="1">
          <mxGeometry width="1719.9999999999998" height="20" as="geometry" />
        </mxCell>
        <mxCell id="YqBSL-obBs7319_bEslr-111" value="API/ HTTPS (SSL/TLS)" style="shape=label;whiteSpace=wrap;html=1;boundedLbl=1;backgroundOutline=1;darkOpacity=0.05;darkOpacity2=0.1;fillColor=#f8cecc;strokeColor=#b85450;rounded=0;fontStyle=1" parent="YqBSL-obBs7319_bEslr-131" vertex="1">
          <mxGeometry width="1720" height="20" as="geometry" />
        </mxCell>
        <mxCell id="5ikOGDqvgjiypZmSYCvw-2" value="" style="edgeStyle=orthogonalEdgeStyle;rounded=0;orthogonalLoop=1;jettySize=auto;html=1;exitX=1;exitY=0;exitDx=0;exitDy=37.5;entryX=0.5;entryY=1;entryDx=0;entryDy=0;strokeColor=#00CC00;strokeWidth=2;exitPerimeter=0;" parent="1" source="wJKNH2wa9GgD9NxRLnAG-41" target="5ikOGDqvgjiypZmSYCvw-1" edge="1">
          <mxGeometry relative="1" as="geometry">
            <mxPoint x="1432" y="330" as="targetPoint" />
            <mxPoint x="1383" y="963" as="sourcePoint" />
          </mxGeometry>
        </mxCell>
        <mxCell id="5ikOGDqvgjiypZmSYCvw-1" value="ACTIVATE OTP AND PASSWORD AUTHENTICATOR" style="rounded=0;whiteSpace=wrap;html=1;strokeWidth=2;fontStyle=1;" parent="1" vertex="1">
          <mxGeometry x="1372" y="846" width="120" height="60" as="geometry" />
        </mxCell>
        <mxCell id="YqBSL-obBs7319_bEslr-109" value="" style="group" parent="1" vertex="1" connectable="0">
          <mxGeometry x="50" y="363" width="1720" height="60" as="geometry" />
        </mxCell>
        <mxCell id="YqBSL-obBs7319_bEslr-100" value="API/ HTTPS (SSL/TLS)" style="shape=label;whiteSpace=wrap;html=1;boundedLbl=1;backgroundOutline=1;darkOpacity=0.05;darkOpacity2=0.1;fillColor=#f8cecc;strokeColor=#b85450;rounded=0;fontStyle=1" parent="YqBSL-obBs7319_bEslr-109" vertex="1">
          <mxGeometry width="1720" height="20" as="geometry" />
        </mxCell>
        <mxCell id="YqBSL-obBs7319_bEslr-101" value="" style="group" parent="YqBSL-obBs7319_bEslr-109" vertex="1" connectable="0">
          <mxGeometry y="20" width="1720" height="40" as="geometry" />
        </mxCell>
        <mxCell id="YqBSL-obBs7319_bEslr-102" value="IDS, IPS, HONEYPOT" style="shape=label;whiteSpace=wrap;html=1;boundedLbl=1;backgroundOutline=1;darkOpacity=0.05;darkOpacity2=0.1;fillColor=#f0a30a;strokeColor=#BD7000;rounded=0;fontColor=#000000;fontSize=12;fontStyle=1" parent="YqBSL-obBs7319_bEslr-101" vertex="1">
          <mxGeometry y="20" width="1719.9999999999998" height="20" as="geometry" />
        </mxCell>
        <mxCell id="YqBSL-obBs7319_bEslr-103" value="SINGLE/ DUAL FIREWALL" style="shape=label;whiteSpace=wrap;html=1;boundedLbl=1;backgroundOutline=1;darkOpacity=0.05;darkOpacity2=0.1;fillColor=#e51400;fontColor=#ffffff;strokeColor=#B20000;rounded=0;fontStyle=1" parent="YqBSL-obBs7319_bEslr-101" vertex="1">
          <mxGeometry width="1719.9999999999998" height="20" as="geometry" />
        </mxCell>
        <mxCell id="lqsYkFyMTrBqvFRDUQ5K-1" style="edgeStyle=orthogonalEdgeStyle;rounded=0;orthogonalLoop=1;jettySize=auto;html=1;exitX=1;exitY=0.5;exitDx=0;exitDy=0;exitPerimeter=0;entryX=0;entryY=0.5;entryDx=0;entryDy=0;strokeColor=#00CC00;strokeWidth=2;jumpStyle=arc;jumpSize=12;" parent="1" source="wJKNH2wa9GgD9NxRLnAG-17" target="YqBSL-obBs7319_bEslr-150" edge="1">
          <mxGeometry relative="1" as="geometry">
            <Array as="points">
              <mxPoint x="1460" y="1028" />
              <mxPoint x="1460" y="920" />
            </Array>
          </mxGeometry>
        </mxCell>
        <mxCell id="2_olIq6nNhRXnhepHH-6-3" value="&lt;div style=&quot;font-size: 18px;&quot;&gt;&lt;font style=&quot;font-size: 18px;&quot;&gt;&lt;b style=&quot;font-size: 18px;&quot;&gt;Purpose:&lt;/b&gt;&lt;/font&gt;&lt;/div&gt;&lt;div style=&quot;font-size: 18px;&quot;&gt;&lt;font style=&quot;font-size: 18px;&quot;&gt;The SOP is designed to guide applicants through the process of registering a new account within the digital identity system.&lt;/font&gt;&lt;/div&gt;&lt;div style=&quot;font-size: 18px;&quot;&gt;&lt;font style=&quot;font-size: 18px;&quot;&gt;This would typically include creating login credentials, passing security checks, and receiving confirmation notifications or error messages in case of failure.&lt;/font&gt;&lt;/div&gt;" style="whiteSpace=wrap;html=1;align=left;rounded=0;strokeWidth=2;verticalAlign=middle;fontFamily=Helvetica;fontSize=18;fontStyle=0;" vertex="1" parent="1">
          <mxGeometry x="30" width="1760" height="70" as="geometry" />
        </mxCell>
      </root>
    </mxGraphModel>
  </diagram>
</mxfile>
